<?xml version="1.0" encoding="utf-8"?>
<!-- Generator: Adobe Illustrator 23.0.0, SVG Export Plug-In . SVG Version: 6.00 Build 0)  -->
<svg version="1.1" id="Layer_1" xmlns="http://www.w3.org/2000/svg" xmlns:xlink="http://www.w3.org/1999/xlink" x="0px" y="0px"
	 viewBox="0 0 26 26" style="enable-background:new 0 0 26 26;" xml:space="preserve">
<style type="text/css">
	.st0{fill:#fc9020;}
</style>
<g id="Page-1">
	<g id="arrow">
		<path id="Shape" class="st0" d="M13,0C9.7,0,6.3,1.3,3.8,3.8c-5.1,5.1-5.1,13.3,0,18.4c5.1,5.1,13.3,5.1,18.4,0
			c5.1-5.1,5.1-13.3,0-18.4C19.7,1.3,16.3,0,13,0z M13,2c2.8,0,5.6,1.1,7.8,3.2c4.3,4.3,4.3,11.3,0,15.6s-11.3,4.3-15.6,0
			S0.9,9.5,5.2,5.2C7.4,3.1,10.2,2,13,2z M12.3,8.1l2.1,2.1l-7.1,7.1l1.4,1.4l7.1-7.1l2.1,2.1V8.1H12.3z"/>
	</g>
</g>
</svg>
